<svg xmlns="http://www.w3.org/2000/svg" viewBox="0 0 800 450">
  <defs>
    <radialGradient id="bg" cx="50%" cy="50%" r="70%">
      <stop offset="0%" stop-color="#081a0e"/>
      <stop offset="100%" stop-color="#030a06"/>
    </radialGradient>
  </defs>
  <rect width="800" height="450" fill="url(#bg)"/>
  <g stroke="#ffffff" stroke-opacity="0.04" stroke-width="1">
    <line x1="0" y1="75" x2="800" y2="75"/><line x1="0" y1="150" x2="800" y2="150"/>
    <line x1="0" y1="225" x2="800" y2="225"/><line x1="0" y1="300" x2="800" y2="300"/>
    <line x1="0" y1="375" x2="800" y2="375"/>
    <line x1="100" y1="0" x2="100" y2="450"/><line x1="200" y1="0" x2="200" y2="450"/>
    <line x1="300" y1="0" x2="300" y2="450"/><line x1="400" y1="0" x2="400" y2="450"/>
    <line x1="500" y1="0" x2="500" y2="450"/><line x1="600" y1="0" x2="600" y2="450"/>
    <line x1="700" y1="0" x2="700" y2="450"/>
  </g>
  <!-- Search bar at top -->
  <rect x="180" y="100" width="440" height="48" rx="24" fill="#0d1f10" stroke="#16a34a" stroke-width="2" stroke-opacity="0.5"/>
  <circle cx="210" cy="124" r="10" fill="none" stroke="#16a34a" stroke-width="2.5" stroke-opacity="0.7"/>
  <line x1="216" y1="130" x2="225" y2="139" stroke="#16a34a" stroke-width="2.5" stroke-opacity="0.7" stroke-linecap="round"/>
  <rect x="240" y="116" width="200" height="16" rx="3" fill="#16a34a" fill-opacity="0.15"/>
  <rect x="580" y="108" width="28" height="32" rx="14" fill="#16a34a" fill-opacity="0.7"/>
  <!-- Search results -->
  <!-- Result 1 - #1 highlighted -->
  <rect x="180" y="168" width="440" height="58" rx="8" fill="#0a1f0d" stroke="#16a34a" stroke-width="2" stroke-opacity="0.6"/>
  <rect x="192" y="178" width="28" height="28" rx="6" fill="#16a34a"/>
  <text x="206" y="197" text-anchor="middle" font-size="14" font-weight="900" fill="#f5f0e8" font-family="Arial">#1</text>
  <rect x="232" y="182" width="160" height="8" rx="3" fill="#16a34a" fill-opacity="0.6"/>
  <rect x="232" y="197" width="280" height="6" rx="2" fill="#f5f0e8" fill-opacity="0.2"/>
  <rect x="232" y="210" width="220" height="6" rx="2" fill="#f5f0e8" fill-opacity="0.13"/>
  <!-- Result 2 -->
  <rect x="180" y="238" width="440" height="52" rx="8" fill="#070e08" stroke="#16a34a" stroke-width="1" stroke-opacity="0.2"/>
  <rect x="192" y="250" width="20" height="20" rx="4" fill="#16a34a" fill-opacity="0.3"/>
  <text x="202" y="264" text-anchor="middle" font-size="11" fill="#f5f0e8" fill-opacity="0.5" font-family="Arial">#2</text>
  <rect x="224" y="252" width="130" height="7" rx="2" fill="#16a34a" fill-opacity="0.3"/>
  <rect x="224" y="265" width="260" height="5" rx="2" fill="#f5f0e8" fill-opacity="0.12"/>
  <rect x="224" y="276" width="200" height="5" rx="2" fill="#f5f0e8" fill-opacity="0.08"/>
  <!-- Result 3 -->
  <rect x="180" y="302" width="440" height="50" rx="8" fill="#070e08" stroke="#16a34a" stroke-width="1" stroke-opacity="0.15"/>
  <rect x="192" y="312" width="18" height="18" rx="3" fill="#16a34a" fill-opacity="0.2"/>
  <text x="201" y="325" text-anchor="middle" font-size="10" fill="#f5f0e8" fill-opacity="0.4" font-family="Arial">#3</text>
  <rect x="222" y="314" width="110" height="7" rx="2" fill="#16a34a" fill-opacity="0.2"/>
  <rect x="222" y="327" width="240" height="5" rx="2" fill="#f5f0e8" fill-opacity="0.09"/>
  <rect x="222" y="338" width="180" height="5" rx="2" fill="#f5f0e8" fill-opacity="0.06"/>
  <!-- Ranking bars right -->
  <g transform="translate(650, 360)" opacity="0.5">
    <rect x="0" y="-200" width="20" height="200" rx="3" fill="#16a34a"/>
    <rect x="28" y="-140" width="20" height="140" rx="3" fill="#16a34a" fill-opacity="0.6"/>
    <rect x="56" y="-90" width="20" height="90" rx="3" fill="#16a34a" fill-opacity="0.4"/>
    <rect x="84" y="-55" width="20" height="55" rx="3" fill="#16a34a" fill-opacity="0.25"/>
  </g>
  <!-- Trophy top right -->
  <g transform="translate(700, 140)" opacity="0.35">
    <rect x="-15" y="0" width="30" height="4" rx="2" fill="#16a34a"/>
    <rect x="-10" y="-8" width="20" height="10" rx="2" fill="#16a34a"/>
    <path d="M-20,-8 Q-30,-30 -15,-45 L15,-45 Q30,-30 20,-8" fill="none" stroke="#16a34a" stroke-width="2.5"/>
    <circle cx="0" cy="-55" r="8" fill="#16a34a" fill-opacity="0.4"/>
    <text x="0" y="-51" text-anchor="middle" font-size="8" fill="#f5f0e8" font-weight="bold">★</text>
  </g>
</svg>